<svg version="1.1" id="Layer_1" xmlns="http://www.w3.org/2000/svg" xmlns:xlink="http://www.w3.org/1999/xlink" x="0px" y="0px"
	 width="100%" viewBox="0 0 383 453" enable-background="new 0 0 383 453" xml:space="preserve">
<path fill="#000000" opacity="1.000000" stroke="none" 
	d="
M1.000000,173.000000 
	C1.000000,115.350418 1.000000,58.200836 1.000000,1.025627 
	C128.611420,1.025627 256.222870,1.025627 383.917145,1.025627 
	C383.917145,151.899597 383.917145,302.799255 383.917145,453.849457 
	C256.333466,453.849457 128.666748,453.849457 1.000000,453.849457 
	C1.000000,360.443817 1.000000,266.971893 1.000000,173.000000 
M224.498428,217.235123 
	C224.349426,217.313095 224.200409,217.391068 223.159027,217.286591 
	C220.445892,217.348053 217.732742,217.409531 214.272858,217.293655 
	C213.509735,217.313492 212.746628,217.333328 211.427460,217.026337 
	C210.931335,217.308334 210.435196,217.590317 209.018494,217.966110 
	C204.344849,218.031128 199.671204,218.096146 194.166702,218.413483 
	C194.133484,232.794998 194.071365,247.176559 194.102982,261.557922 
	C194.107010,263.392548 194.600098,265.226135 194.975754,267.949127 
	C195.038712,270.639313 195.101685,273.329498 195.068253,276.547211 
	C195.370865,276.648468 195.673462,276.749725 196.903946,277.013336 
	C215.609421,276.956879 234.314880,276.900421 253.495636,276.967896 
	C253.495636,276.967896 253.970795,276.843475 254.645859,277.011322 
	C255.103241,276.957550 255.560623,276.903778 256.556793,276.926636 
	C256.751343,276.631409 256.945923,276.336151 258.030334,276.026672 
	C262.440369,275.650330 267.004395,275.877838 271.235138,274.798676 
	C296.674042,268.309814 319.893616,257.221924 338.421082,238.328461 
	C346.754181,229.830750 353.849670,219.903976 360.359436,209.880539 
	C372.200409,191.648331 377.823029,171.142853 378.884796,149.544067 
	C379.345428,140.172607 378.556274,130.716782 377.968201,121.322227 
	C377.154419,108.321808 372.965942,96.077438 367.646088,84.410950 
	C358.635956,64.651718 345.299011,48.052937 328.136536,34.641880 
	C312.988190,22.804693 296.287384,13.931349 277.391571,10.007666 
	C267.622742,7.979180 257.600861,6.529726 247.645523,6.180549 
	C230.240891,5.570093 212.799408,6.010386 195.321625,6.010386 
	C195.321625,26.159470 195.321625,46.023163 195.321625,66.000885 
	C209.808136,66.000885 223.961044,66.199974 238.106140,65.952782 
	C257.805054,65.608528 275.846832,69.594856 291.643890,82.464851 
	C323.260773,108.223389 329.412415,153.429199 304.063904,186.583923 
	C290.419464,204.430237 272.179840,214.371017 249.059616,217.108536 
	C241.028885,217.212723 232.998169,217.316910 224.498428,217.235123 
M62.884785,240.597168 
	C62.923992,234.820557 62.995792,229.043976 62.997208,223.267349 
	C63.007755,180.178101 63.004364,137.088867 63.368484,93.320786 
	C65.401550,81.537239 72.124718,73.517509 83.555168,68.939323 
	C83.752632,68.641853 83.950104,68.344383 84.592644,68.007858 
	C84.592644,68.007858 85.012283,67.854477 85.556221,67.940651 
	C85.754471,67.643097 85.952728,67.345543 86.870682,67.026787 
	C87.582016,66.957161 88.293343,66.887535 89.775421,66.908119 
	C91.521194,66.615395 93.266975,66.322662 95.669174,66.213371 
	C96.112595,66.142769 96.556007,66.072159 97.757492,66.208473 
	C103.172440,66.140823 108.587379,66.073181 114.841209,66.211945 
	C116.560677,66.141663 118.280136,66.071381 120.368332,66.206421 
	C120.910751,66.134331 121.453178,66.062241 122.655930,66.179657 
	C123.104546,66.118126 123.553162,66.056602 124.473053,66.208397 
	C125.315308,66.138779 126.157570,66.069168 127.787788,66.178139 
	C128.856796,66.123451 129.925812,66.068756 131.468063,66.240631 
	C132.313126,66.163002 133.158188,66.085373 134.747086,66.152298 
	C135.497574,66.102859 136.248062,66.053429 137.674911,66.242958 
	C139.780685,66.155685 141.886444,66.068413 144.929550,66.020859 
	C151.623657,65.965622 158.317780,65.910385 165.549759,65.940445 
	C165.646851,65.633598 165.743927,65.326752 165.990509,64.090622 
	C165.990509,44.823837 165.990509,25.557055 165.990509,6.020010 
	C146.822830,6.020010 128.183411,5.799065 109.552704,6.106136 
	C99.038918,6.279426 88.471207,6.780524 78.048912,8.094649 
	C60.687973,10.283653 46.098278,18.836384 33.351063,30.337902 
	C21.710653,40.840771 13.930165,53.979851 8.928387,68.915550 
	C4.645361,81.705009 5.358144,95.010689 5.303253,107.938972 
	C4.823556,220.918808 5.024114,333.901520 5.034157,446.883392 
	C5.034212,447.500366 5.195692,448.117340 5.441684,449.880127 
	C14.405560,448.904724 23.427750,448.965485 31.865591,446.775146 
	C46.755470,442.909912 56.568844,432.951721 61.288044,417.673920 
	C61.181091,417.120514 61.074139,416.567078 61.021603,415.253662 
	C61.306526,413.837128 61.591450,412.420624 62.026234,410.076813 
	C62.030380,404.093903 62.034473,398.110992 62.038685,392.128082 
	C62.074127,341.773499 62.109600,291.418945 62.884785,240.597168 
M92.903511,280.002625 
	C117.190163,279.602753 141.476807,279.202881 165.780884,278.802734 
	C165.780884,258.118134 165.780884,238.701752 165.780884,218.831818 
	C162.250534,219.061295 158.933517,219.010818 155.708069,219.529694 
	C134.560745,222.931610 117.278282,232.925766 104.364655,250.144592 
	C97.876038,258.796448 93.160263,268.296234 91.069588,279.545807 
	C91.371529,279.644226 91.673470,279.742615 92.903511,280.002625 
z"/>
<path fill="#F3F2F0" opacity="1.000000" stroke="none" 
	d="
M119.999603,66.001106 
	C118.280136,66.071381 116.560677,66.141663 114.121307,65.820099 
	C107.934074,65.619354 102.466751,65.810455 96.999428,66.001556 
	C96.556007,66.072159 96.112595,66.142769 95.091248,65.849426 
	C92.677101,65.929619 90.840889,66.373756 89.004677,66.817902 
	C88.293343,66.887535 87.582016,66.957161 86.283310,67.113991 
	C85.393044,67.340446 85.165161,67.558212 85.012283,67.854477 
	C85.012283,67.854477 84.592644,68.007858 84.144363,68.102692 
	C83.396126,68.335068 83.168671,68.549515 83.013710,68.840874 
	C72.124718,73.517509 65.401550,81.537239 62.846306,93.723206 
	C61.878849,95.086235 61.433571,96.046837 60.703300,97.310760 
	C60.278896,99.591362 60.018089,101.568604 60.017567,103.545921 
	C59.996880,181.864792 59.999763,260.183655 59.999733,338.502533 
	C59.999722,360.998383 59.960247,383.494415 60.081215,405.989624 
	C60.090218,407.664276 61.251019,409.332733 61.876373,411.004089 
	C61.591450,412.420624 61.306526,413.837128 60.780796,415.778687 
	C60.674580,416.862488 60.809174,417.421326 60.943764,417.980133 
	C56.568844,432.951721 46.755470,442.909912 31.865591,446.775146 
	C23.427750,448.965485 14.405560,448.904724 5.441684,449.880127 
	C5.195692,448.117340 5.034212,447.500366 5.034157,446.883392 
	C5.024114,333.901520 4.823556,220.918808 5.303253,107.938972 
	C5.358144,95.010689 4.645361,81.705009 8.928387,68.915550 
	C13.930165,53.979851 21.710653,40.840771 33.351063,30.337902 
	C46.098278,18.836384 60.687973,10.283653 78.048912,8.094649 
	C88.471207,6.780524 99.038918,6.279426 109.552704,6.106136 
	C128.183411,5.799065 146.822830,6.020010 165.990509,6.020010 
	C165.990509,25.557055 165.990509,44.823837 165.738647,64.651962 
	C165.265656,65.380760 165.107361,65.594711 165.011887,65.855148 
	C158.317780,65.910385 151.623657,65.965622 144.195526,65.731834 
	C141.307175,65.629868 139.152863,65.816933 136.998550,66.003998 
	C136.248062,66.053429 135.497574,66.102859 134.186539,65.835526 
	C132.748932,65.683853 131.871887,65.848961 130.994827,66.014069 
	C129.925812,66.068756 128.856796,66.123451 127.205879,65.846268 
	C125.749908,65.674614 124.875839,65.834846 124.001778,65.995071 
	C123.553162,66.056602 123.104546,66.118126 122.175636,65.868149 
	C121.130096,65.704788 120.564850,65.852951 119.999603,66.001106 
z"/>
<path fill="#F3F1F0" opacity="1.000000" stroke="none" 
	d="
M253.020355,276.843964 
	C234.314880,276.900421 215.609421,276.956879 196.349945,276.754028 
	C195.631393,276.275330 195.420975,276.117004 195.164642,276.019684 
	C195.101685,273.329498 195.038712,270.639313 195.231186,267.214355 
	C195.658142,252.802979 195.882507,239.126663 195.951920,225.449570 
	C195.964249,223.021774 195.332108,220.590698 194.997559,218.161148 
	C199.671204,218.096146 204.344849,218.031128 209.623352,218.147156 
	C210.813324,218.003189 211.398422,217.678177 211.983505,217.353149 
	C212.746628,217.333328 213.509735,217.313492 214.804367,217.726013 
	C215.743225,218.415009 216.149292,218.893494 216.558121,218.895874 
	C226.838150,218.956055 237.118866,219.008194 247.397964,218.909119 
	C248.266357,218.900757 249.124435,217.820847 249.987305,217.238770 
	C272.179840,214.371017 290.419464,204.430237 304.063904,186.583923 
	C329.412415,153.429199 323.260773,108.223389 291.643890,82.464851 
	C275.846832,69.594856 257.805054,65.608528 238.106140,65.952782 
	C223.961044,66.199974 209.808136,66.000885 195.321625,66.000885 
	C195.321625,46.023163 195.321625,26.159470 195.321625,6.010386 
	C212.799408,6.010386 230.240891,5.570093 247.645523,6.180549 
	C257.600861,6.529726 267.622742,7.979180 277.391571,10.007666 
	C296.287384,13.931349 312.988190,22.804693 328.136536,34.641880 
	C345.299011,48.052937 358.635956,64.651718 367.646088,84.410950 
	C372.965942,96.077438 377.154419,108.321808 377.968201,121.322227 
	C378.556274,130.716782 379.345428,140.172607 378.884796,149.544067 
	C377.823029,171.142853 372.200409,191.648331 360.359436,209.880539 
	C353.849670,219.903976 346.754181,229.830750 338.421082,238.328461 
	C319.893616,257.221924 296.674042,268.309814 271.235138,274.798676 
	C267.004395,275.877838 262.440369,275.650330 257.363647,276.118652 
	C256.391449,276.339661 256.165161,276.552795 256.018005,276.850006 
	C255.560623,276.903778 255.103241,276.957550 254.216248,276.791626 
	C253.460480,276.386047 253.205048,276.476715 253.020355,276.843964 
z"/>
<path fill="#F3F2F0" opacity="1.000000" stroke="none" 
	d="
M91.154243,279.017181 
	C93.160263,268.296234 97.876038,258.796448 104.364655,250.144592 
	C117.278282,232.925766 134.560745,222.931610 155.708069,219.529694 
	C158.933517,219.010818 162.250534,219.061295 165.780884,218.831818 
	C165.780884,238.701752 165.780884,258.118134 165.780884,278.802734 
	C141.476807,279.202881 117.190163,279.602753 92.345993,279.745300 
	C91.624100,279.267700 91.412689,279.110779 91.154243,279.017181 
z"/>
<path fill="#ECEBEA" opacity="1.000000" stroke="none" 
	d="
M61.951302,410.540466 
	C61.251019,409.332733 60.090218,407.664276 60.081215,405.989624 
	C59.960247,383.494415 59.999722,360.998383 59.999733,338.502533 
	C59.999763,260.183655 59.996880,181.864792 60.017567,103.545921 
	C60.018089,101.568604 60.278896,99.591362 60.705811,97.778572 
	C60.994038,143.609055 60.979939,189.275070 61.044209,234.940979 
	C61.047081,236.982620 61.761868,239.023270 62.145058,241.064377 
	C62.109600,291.418945 62.074127,341.773499 62.038685,392.128082 
	C62.034473,398.110992 62.030380,404.093903 61.951302,410.540466 
z"/>
<path fill="#FBFBFB" opacity="1.000000" stroke="none" 
	d="
M62.514923,240.830780 
	C61.761868,239.023270 61.047081,236.982620 61.044209,234.940979 
	C60.979939,189.275070 60.994038,143.609055 60.990803,97.475250 
	C61.433571,96.046837 61.878849,95.086235 62.664742,94.062622 
	C63.004364,137.088867 63.007755,180.178101 62.997208,223.267349 
	C62.995792,229.043976 62.923992,234.820557 62.514923,240.830780 
z"/>
<path fill="#F6F5F5" opacity="1.000000" stroke="none" 
	d="
M194.582123,218.287323 
	C195.332108,220.590698 195.964249,223.021774 195.951920,225.449570 
	C195.882507,239.126663 195.658142,252.802979 195.176636,266.769867 
	C194.600098,265.226135 194.107010,263.392548 194.102982,261.557922 
	C194.071365,247.176559 194.133484,232.794998 194.582123,218.287323 
z"/>
<path fill="#FFFEFD" opacity="1.000000" stroke="none" 
	d="
M249.523453,217.173645 
	C249.124435,217.820847 248.266357,218.900757 247.397964,218.909119 
	C237.118866,219.008194 226.838150,218.956055 216.558121,218.895874 
	C216.149292,218.893494 215.743225,218.415009 215.177734,217.814682 
	C217.732742,217.409531 220.445892,217.348053 223.695236,217.500916 
	C224.231445,217.715256 224.664215,217.739487 224.664215,217.739487 
	C224.664215,217.739487 224.967438,217.421097 224.967438,217.421097 
	C232.998169,217.316910 241.028885,217.212723 249.523453,217.173645 
z"/>
<path fill="#F8F7F6" opacity="1.000000" stroke="none" 
	d="
M97.378464,66.105011 
	C102.466751,65.810455 107.934074,65.619354 113.701859,65.716888 
	C108.587379,66.073181 103.172440,66.140823 97.378464,66.105011 
z"/>
<path fill="#F8F7F6" opacity="1.000000" stroke="none" 
	d="
M137.336731,66.123474 
	C139.152863,65.816933 141.307175,65.629868 143.726852,65.711975 
	C141.886444,66.068413 139.780685,66.155685 137.336731,66.123474 
z"/>
<path fill="#F8F7F6" opacity="1.000000" stroke="none" 
	d="
M89.390045,66.863007 
	C90.840889,66.373756 92.677101,65.929619 94.763031,65.757706 
	C93.266975,66.322662 91.521194,66.615395 89.390045,66.863007 
z"/>
<path fill="#F8F7F6" opacity="1.000000" stroke="none" 
	d="
M124.237411,66.101730 
	C124.875839,65.834846 125.749908,65.674614 126.811897,65.756973 
	C126.157570,66.069168 125.315308,66.138779 124.237411,66.101730 
z"/>
<path fill="#F8F7F6" opacity="1.000000" stroke="none" 
	d="
M131.231445,66.127350 
	C131.871887,65.848961 132.748932,65.683853 133.814621,65.763245 
	C133.158188,66.085373 132.313126,66.163002 131.231445,66.127350 
z"/>
<path fill="#FBFBFB" opacity="1.000000" stroke="none" 
	d="
M61.115906,417.827026 
	C60.809174,417.421326 60.674580,416.862488 60.753586,416.158691 
	C61.074139,416.567078 61.181091,417.120514 61.115906,417.827026 
z"/>
<path fill="#FFFEFD" opacity="1.000000" stroke="none" 
	d="
M211.705475,217.189758 
	C211.398422,217.678177 210.813324,218.003189 210.083649,218.100266 
	C210.435196,217.590317 210.931335,217.308334 211.705475,217.189758 
z"/>
<path fill="#F8F7F6" opacity="1.000000" stroke="none" 
	d="
M120.183968,66.103760 
	C120.564850,65.852951 121.130096,65.704788 121.845474,65.773392 
	C121.453178,66.062241 120.910751,66.134331 120.183968,66.103760 
z"/>
<path fill="#F3F1F0" opacity="1.000000" stroke="none" 
	d="
M224.732941,217.328110 
	C224.967438,217.421097 224.664215,217.739487 224.664215,217.739487 
	C224.664215,217.739487 224.231445,217.715256 224.141418,217.592163 
	C224.200409,217.391068 224.349426,217.313095 224.732941,217.328110 
z"/>
<path fill="#F8F7F6" opacity="1.000000" stroke="none" 
	d="
M83.284439,68.890099 
	C83.168671,68.549515 83.396126,68.335068 83.921829,68.122215 
	C83.950104,68.344383 83.752632,68.641853 83.284439,68.890099 
z"/>
<path fill="#F8F7F6" opacity="1.000000" stroke="none" 
	d="
M85.284256,67.897568 
	C85.165161,67.558212 85.393044,67.340446 85.923462,67.124596 
	C85.952728,67.345543 85.754471,67.643097 85.284256,67.897568 
z"/>
<path fill="#F8F7F6" opacity="1.000000" stroke="none" 
	d="
M165.280823,65.897797 
	C165.107361,65.594711 165.265656,65.380760 165.663895,65.116600 
	C165.743927,65.326752 165.646851,65.633598 165.280823,65.897797 
z"/>
<path fill="#FFFFFF" opacity="1.000000" stroke="none" 
	d="
M195.116455,276.283447 
	C195.420975,276.117004 195.631393,276.275330 195.885986,276.672852 
	C195.673462,276.749725 195.370865,276.648468 195.116455,276.283447 
z"/>
<path fill="#FFFFFF" opacity="1.000000" stroke="none" 
	d="
M253.257996,276.905945 
	C253.205048,276.476715 253.460480,276.386047 253.878723,276.707703 
	C253.970795,276.843475 253.495636,276.967896 253.257996,276.905945 
z"/>
<path fill="#FFFFFF" opacity="1.000000" stroke="none" 
	d="
M256.287415,276.888306 
	C256.165161,276.552795 256.391449,276.339661 256.918701,276.125763 
	C256.945923,276.336151 256.751343,276.631409 256.287415,276.888306 
z"/>
<path fill="#FEFEFD" opacity="1.000000" stroke="none" 
	d="
M91.111916,279.281494 
	C91.412689,279.110779 91.624100,279.267700 91.881950,279.664490 
	C91.673470,279.742615 91.371529,279.644226 91.111916,279.281494 
z"/>
</svg>